<?xml version="1.0" standalone="no"?>
<!DOCTYPE svg PUBLIC "-//W3C//DTD SVG 20010904//EN"
 "http://www.w3.org/TR/2001/REC-SVG-20010904/DTD/svg10.dtd">
<svg version="1.0" xmlns="http://www.w3.org/2000/svg"
 width="272.000000pt" height="272.000000pt" viewBox="0 0 272.000000 272.000000"
 preserveAspectRatio="xMidYMid meet">

<g transform="translate(0.000000,272.000000) scale(0.100000,-0.100000)"
fill="currentColor" stroke="none">
<path d="M1190 2564 c-63 -25 -151 -58 -195 -75 -44 -16 -93 -36 -110 -43 -16
-8 -55 -21 -85 -31 -30 -9 -107 -37 -170 -61 -63 -25 -137 -53 -165 -63 -27
-11 -94 -36 -148 -57 l-98 -39 3 -580 3 -580 29 -95 c38 -128 57 -168 135
-285 147 -223 385 -413 618 -495 226 -80 539 -78 752 4 196 76 316 152 455
291 134 133 220 270 275 436 34 106 47 173 56 306 8 104 10 102 -68 106 -26 2
-49 5 -51 8 -3 2 -14 46 -25 96 -52 238 -182 431 -380 561 -213 141 -399 202
-612 202 -59 0 -69 -3 -70 -17 -1 -12 -4 -10 -9 7 -4 14 -8 121 -9 238 -1 116
-4 212 -8 211 -5 0 -60 -21 -123 -45z m138 -931 c3 -329 3 -329 -51 -274 l-27
28 -261 6 c-144 3 -266 10 -270 14 -17 17 116 257 184 332 28 29 174 126 224
148 57 25 155 52 178 50 19 -2 20 -10 23 -304z m313 271 c182 -59 364 -218
456 -399 51 -99 61 -145 62 -279 2 -164 -32 -316 -89 -404 -68 -106 -227 -248
-325 -291 -107 -47 -262 -88 -291 -77 -12 5 -14 63 -12 403 l3 398 108 3 107
3 0 -51 0 -50 -57 0 -58 0 62 -61 c60 -58 64 -60 110 -57 l48 3 3 172 2 173
-162 2 -163 3 -3 260 c-1 143 0 266 3 273 7 20 97 8 196 -24z m-433 -733 l3
-85 57 -65 57 -65 0 -240 0 -241 -38 -3 c-53 -4 -135 21 -253 79 -92 45 -110
58 -185 140 -46 50 -97 112 -114 138 l-30 47 3 188 3 187 42 -6 c23 -3 56 -1
72 4 17 5 109 9 205 8 l175 -2 3 -84z"/>
</g>
</svg>
