<svg version="1.1" id="Layer_1" xmlns="http://www.w3.org/2000/svg" xmlns:xlink="http://www.w3.org/1999/xlink" x="0px" y="0px"
	 width="100%" viewBox="0 0 1023 484" enable-background="new 0 0 1023 484" xml:space="preserve">
<path fill="currentColor" opacity="1.000000" stroke="none" 
	d="
M403.137512,405.681396 
	C403.164673,405.294067 403.191833,404.906738 403.103394,403.804077 
	C402.990967,366.327393 403.012115,329.565979 402.989349,292.804596 
	C402.978638,275.509430 402.883545,258.214325 402.826660,240.919205 
	C402.826691,240.919205 403.031250,240.864029 403.539612,240.945999 
	C428.104797,241.017700 452.161682,241.019165 476.218445,240.977112 
	C478.370880,240.973343 481.270386,241.833908 480.998962,237.536774 
	C480.976746,236.436081 480.916962,235.703171 480.857178,234.970276 
	C479.464661,232.656204 478.288116,230.174149 476.641876,228.057388 
	C469.786835,219.243088 461.916321,211.073074 456.135590,201.616913 
	C451.879974,194.655563 446.054108,189.463364 441.104095,183.340424 
	C438.833832,180.532242 436.954193,177.404938 434.939636,174.394073 
	C431.783997,169.677780 428.830109,164.814774 425.459686,160.258835 
	C423.757446,157.957901 421.030334,156.422073 419.290009,154.140961 
	C415.608948,149.316193 412.493134,144.053787 408.729218,139.300476 
	C405.193298,134.835083 400.942047,130.940018 397.344086,126.518547 
	C394.577087,123.118233 392.325806,119.296867 389.868225,115.647240 
	C389.332092,114.850983 388.973877,113.928223 388.397430,113.166924 
	C384.873627,108.513031 381.308319,103.890625 377.761719,99.253990 
	C376.277557,97.313713 376.056061,95.912766 380.055603,95.988434 
	C446.956085,95.992188 512.992981,95.999100 579.029846,95.996719 
	C580.355896,95.996674 581.681946,95.888084 583.007996,95.830139 
	C588.799805,97.449722 594.688904,98.789253 600.359131,100.758865 
	C607.663208,103.296013 615.109009,105.744240 621.888855,109.363792 
	C626.690613,111.927299 630.053467,117.173462 634.845154,119.771690 
	C641.084229,123.154747 645.672913,128.185913 648.999939,133.725998 
	C652.800781,140.054916 658.559631,145.164337 660.300232,153.016327 
	C661.412292,158.033096 665.090149,162.478699 667.592346,167.193802 
	C667.815735,167.614868 667.923706,168.128860 667.965393,168.610062 
	C668.722595,177.358780 670.114807,186.117279 670.005188,194.856583 
	C669.910950,202.372040 669.036499,210.173981 666.710754,217.259613 
	C665.194275,221.879791 665.966003,227.923798 660.604187,231.252609 
	C659.522461,231.924164 660.322998,235.145676 659.514038,236.836761 
	C657.721863,240.583221 655.297485,244.022766 653.419556,247.733521 
	C648.697754,257.063873 640.752258,263.659668 633.292908,270.405304 
	C628.574646,274.672119 621.999084,276.891724 616.233582,279.986633 
	C615.410889,280.428223 614.238403,280.388458 613.599609,280.975800 
	C607.615234,286.478271 599.942078,286.685638 592.555725,288.049927 
	C550.062012,295.898651 507.190826,289.604034 464.546722,291.616486 
	C461.598999,291.755554 458.652344,291.917206 455.048462,292.102081 
	C455.048462,295.655914 455.048615,298.768127 455.048462,301.880310 
	C455.046875,334.189056 455.049896,366.497803 455.032196,398.806549 
	C455.031097,400.798431 454.866669,402.790253 454.360107,405.242218 
	C437.007172,405.695374 420.072327,405.688385 403.137512,405.681396 
M575.974548,236.011307 
	C580.311829,235.242264 584.821594,234.983322 588.947205,233.588303 
	C595.647156,231.322815 601.537354,227.299713 605.708435,221.578217 
	C610.014771,215.671097 615.259094,210.026917 615.026672,201.849487 
	C614.889771,197.031235 615.043457,192.205399 615.005981,187.383453 
	C614.969788,182.732376 615.639465,178.074066 611.212830,174.416107 
	C609.165344,172.724213 608.729797,169.205063 606.873108,167.132980 
	C603.069763,162.888443 599.371826,158.049164 594.567993,155.336594 
	C589.363586,152.397842 582.949097,151.601959 576.923828,149.098160 
	C574.916138,148.397385 572.912659,147.101471 570.900208,147.087524 
	C549.808960,146.941238 528.716248,146.972015 507.624359,147.050064 
	C505.711792,147.057144 503.801727,147.733627 500.980164,148.006760 
	C498.322906,148.005707 495.641083,148.233429 493.014069,147.951004 
	C488.880737,147.506592 487.191010,149.981720 488.172516,153.117859 
	C489.273224,156.634750 491.727966,159.770432 493.822418,162.919785 
	C495.404510,165.298645 497.397522,167.400040 499.112762,169.695801 
	C500.579895,171.659531 501.794708,173.818344 503.326263,175.726212 
	C507.922180,181.451477 512.643311,187.076065 517.266296,192.779846 
	C520.071106,196.240387 522.874451,199.709152 525.504028,203.301910 
	C526.967346,205.301346 527.795959,207.800140 529.391663,209.661545 
	C534.273132,215.355759 539.976196,220.441803 544.219177,226.555908 
	C547.432617,231.186432 550.934082,234.817825 556.412903,237.828293 
	C561.304626,237.884796 566.201294,238.081528 571.084778,237.907532 
	C572.448669,237.858917 573.773499,236.715897 575.974548,236.011307 
z"/>
<path fill="currentColor" opacity="1.000000" stroke="none" 
	d="
M302.980469,416.082520 
	C300.431030,415.721466 297.869141,415.431488 295.334534,414.986023 
	C287.726929,413.648956 280.071381,412.508972 272.546967,410.797760 
	C266.231049,409.361420 259.970856,407.517120 253.869934,405.338318 
	C245.763184,402.443146 237.732971,399.276489 229.874481,395.768158 
	C226.097076,394.081757 222.845184,391.248749 219.242340,389.126862 
	C217.646255,388.186859 215.636551,387.947937 214.043457,387.004364 
	C206.100845,382.300018 198.233444,377.468628 190.344421,372.673981 
	C190.065323,372.504303 189.708496,372.300018 189.604324,372.028748 
	C187.055771,365.392792 179.802780,363.688995 175.599899,358.571106 
	C169.851562,351.571320 162.954178,345.493317 156.367157,339.211182 
	C151.297089,334.375763 145.797684,329.987915 140.770782,325.110840 
	C137.253372,321.698273 134.329773,317.681061 130.914337,314.153320 
	C128.665146,311.830170 125.875031,310.036346 123.574394,307.756042 
	C120.304482,304.515076 117.369774,300.935608 114.095535,297.699371 
	C109.715820,293.370575 105.038849,289.340942 100.691856,284.981110 
	C96.327293,280.603668 92.241257,275.949768 87.968513,271.478821 
	C86.603676,270.050659 85.032417,268.819824 82.638206,266.678009 
	C85.173256,266.383728 87.049866,265.978607 88.927032,265.976044 
	C116.907585,265.937714 144.890732,266.170654 172.867569,265.847168 
	C183.996552,265.718506 195.175278,263.135437 204.017029,256.494080 
	C210.293625,251.779526 216.883926,246.176941 219.259415,237.622055 
	C220.384888,233.568878 222.366745,229.753479 224.442780,225.382019 
	C225.597900,224.185577 226.828613,223.456039 226.854187,222.686462 
	C227.034149,217.271255 227.090073,211.842270 226.849777,206.432602 
	C226.811615,205.573257 225.083801,204.788971 224.137131,203.970001 
	C219.689926,180.419327 198.866867,165.619019 176.088486,163.911377 
	C174.020218,163.538330 172.774353,163.029617 171.527786,163.027847 
	C138.695969,162.981033 105.864059,162.978378 73.032242,163.021988 
	C72.016151,163.023331 71.000824,163.597382 69.985138,163.904449 
	C63.551437,162.310623 57.070362,160.882263 50.702282,159.059219 
	C47.041870,158.011322 43.320927,156.736069 40.069824,154.814392 
	C36.452583,152.676300 32.802795,150.140015 30.122591,146.969437 
	C25.346151,141.319122 20.690180,135.397491 17.079811,128.973389 
	C12.470516,120.771858 9.042122,111.935638 10.560554,101.623993 
	C30.355200,101.092636 49.680920,101.015526 69.006683,101.003540 
	C104.828903,100.981316 140.651215,101.021309 176.473129,100.915344 
	C178.023727,100.910759 179.570786,99.709084 181.119492,99.065048 
	C184.701202,99.775543 188.330063,100.307335 191.853790,101.237488 
	C197.442703,102.712776 202.977478,104.401901 208.502777,106.105568 
	C211.232605,106.947296 213.819687,108.449699 216.594437,108.908119 
	C223.030151,109.971390 228.156387,113.149437 233.134674,117.178696 
	C237.634171,120.820435 243.389999,123.057701 247.421616,127.085579 
	C251.001831,130.662460 257.011475,131.630417 258.472961,137.688065 
	C258.943451,139.638229 261.881714,140.866669 263.212738,142.761307 
	C266.177582,146.981613 268.225800,152.038712 271.813812,155.569717 
	C274.896912,158.603867 276.670197,161.917862 278.137207,165.684860 
	C279.107941,168.177551 280.165894,170.644226 280.982727,173.187454 
	C283.593262,181.315109 286.282196,189.425156 288.562653,197.646896 
	C289.298401,200.299438 288.864288,203.276459 288.984741,207.010910 
	C289.054016,212.613647 289.103912,217.310516 289.153809,222.007385 
	C287.767303,230.179550 287.031525,238.533188 284.817047,246.474472 
	C282.453033,254.952011 278.975555,263.165833 275.392822,271.232117 
	C274.089081,274.167450 271.081665,276.346039 268.127930,279.042847 
	C264.763336,282.531311 260.056213,284.637726 261.047516,290.078766 
	C254.786179,294.981598 250.697372,301.941010 243.085251,305.962433 
	C238.569855,308.347839 232.946396,310.146667 229.366882,314.333038 
	C228.279541,315.604675 227.472351,318.496948 228.173920,319.656433 
	C230.224335,323.045227 233.916245,325.576660 235.462570,329.102875 
	C237.804886,334.444183 245.951355,333.609192 246.562851,340.660706 
	C246.699677,342.238739 250.005966,343.518463 251.817719,344.979401 
	C256.172760,348.491089 260.753937,351.482025 263.332428,357.073212 
	C264.851624,360.367493 268.967834,362.483459 271.970123,365.066528 
	C273.563660,366.437653 275.455170,367.501862 276.885742,369.013550 
	C278.931946,371.175751 280.446472,373.871460 282.612305,375.882446 
	C285.386200,378.457947 288.592804,379.990265 290.538208,384.033295 
	C292.479767,388.068207 297.526764,390.553986 301.027771,393.911377 
	C303.643585,396.419952 307.635620,397.482788 308.366913,402.120483 
	C308.651733,403.926941 311.321808,405.877533 313.343597,406.772125 
	C316.662415,408.240601 318.353058,410.762329 318.956116,413.891785 
	C314.764099,414.008301 311.328156,413.786682 307.941895,414.100861 
	C306.241425,414.258606 304.631409,415.390930 302.980469,416.082520 
z"/>
<path fill="currentColor" opacity="1.000000" stroke="none" 
	d="
M880.118408,91.097572 
	C880.559570,91.382294 881.000671,91.667023 881.815002,92.317139 
	C882.788574,92.845894 883.388977,93.009262 884.009399,93.578934 
	C885.279175,94.657402 886.510071,95.865097 887.781799,95.909760 
	C893.528564,96.111610 899.286804,95.984444 905.486328,95.974197 
	C908.885071,95.025963 912.674377,98.091103 914.990356,94.085075 
	C920.346558,94.212997 925.744629,93.983574 931.043213,94.603897 
	C934.182495,94.971428 937.164673,96.680290 940.569336,98.372986 
	C940.890137,118.630623 940.859131,138.301300 940.462708,158.066452 
	C937.482727,158.781616 934.864563,159.387680 932.254639,160.026993 
	C929.489746,160.704285 926.732483,161.413116 923.971924,162.108170 
	C918.305603,161.742432 912.639282,161.376694 906.125977,160.910446 
	C901.838501,160.586548 898.397888,160.363174 894.494385,160.083832 
	C887.952942,159.997864 881.872192,159.857361 875.797058,159.985138 
	C872.818726,160.047775 869.850952,160.608551 866.878357,160.943878 
	C861.354492,160.325882 857.076294,162.815445 852.542969,165.701370 
	C847.226379,169.085907 841.762695,172.201050 838.099670,177.384827 
	C835.093628,181.638885 832.465027,186.229019 830.240906,190.940125 
	C828.921570,193.734772 828.710510,197.052612 827.576904,200.759933 
	C827.082092,203.707321 826.950867,206.029953 826.950012,208.352661 
	C826.929626,261.223602 826.923462,314.094574 826.914673,366.965515 
	C825.901550,367.290771 824.888428,367.616058 823.168945,367.886230 
	C818.961609,367.604645 815.460632,367.378174 811.495605,367.108459 
	C804.320862,367.074921 797.610291,367.084656 790.453186,367.048523 
	C786.993225,367.057831 783.979797,367.113037 780.504944,367.100342 
	C774.374084,367.002411 768.704590,366.972382 763.035095,366.942352 
	C762.921692,366.596924 762.808289,366.251495 762.817627,365.141968 
	C762.970215,308.583923 763.012268,252.789948 762.957275,196.996094 
	C762.955994,195.651733 761.872559,194.308472 761.293884,192.964691 
	C762.043823,188.228729 762.414246,183.392487 763.633179,178.780457 
	C765.435059,171.962494 767.415466,165.127975 770.109924,158.628006 
	C772.688171,152.408386 776.956055,147.008499 780.421631,141.251404 
	C785.365784,133.037903 791.162292,125.737144 798.245850,119.561890 
	C802.115784,116.188057 805.082703,111.352226 811.054260,110.448036 
	C812.929443,110.164101 814.200012,107.000534 816.177856,106.075478 
	C822.579163,103.081451 829.092773,100.275085 835.728943,97.850319 
	C842.581543,95.346420 849.610168,93.313477 856.605408,91.220192 
	C857.982483,90.808098 859.558289,91.059692 861.664551,91.406670 
	C867.530640,92.190529 872.771484,92.644524 878.022217,92.866623 
	C878.694824,92.895073 879.418457,91.716820 880.118408,91.097572 
z"/>
<path fill="currentColor" opacity="1.000000" stroke="none" 
	d="
M991.008789,231.174255 
	C993.231934,231.177765 995.455139,231.181259 997.812622,232.031464 
	C997.966248,264.071686 997.966125,295.265259 998.052979,326.458618 
	C998.058105,328.320587 998.757996,330.180634 999.134521,332.041595 
	C999.090149,335.200714 998.787659,338.382019 999.056396,341.514252 
	C999.577271,347.584106 997.833862,352.796661 994.770874,358.031464 
	C992.746826,361.490784 992.348938,365.868134 990.965576,369.742554 
	C987.829956,378.524323 984.240051,387.052216 977.099731,393.549652 
	C975.523010,394.984436 974.418091,396.933868 973.074341,398.629272 
	C970.376404,402.033325 968.209961,406.163513 964.837036,408.660919 
	C958.801270,413.129852 953.664307,418.594879 947.095398,422.599030 
	C940.338745,426.717621 932.651794,428.333405 926.123657,432.328217 
	C920.085754,436.023041 913.820557,437.004700 906.188843,437.098419 
	C900.239990,437.026154 895.216248,436.966125 890.192444,436.906097 
	C890.192444,436.906097 890.117859,437.027466 890.086182,436.554169 
	C890.087463,415.090820 890.120422,394.100739 890.153320,373.110687 
	C891.219666,372.444763 892.286072,371.778839 893.839966,371.400879 
	C897.634033,372.269226 900.940674,372.849670 904.623535,373.496185 
	C904.810791,370.982666 904.916321,369.566101 905.021912,368.149536 
	C910.536743,365.335754 916.328857,362.939758 921.453735,359.538422 
	C924.166626,357.737946 925.727234,354.195160 927.792053,351.426971 
	C928.805237,350.068726 930.139221,348.816498 930.709961,347.285858 
	C932.607910,342.195435 934.225708,337.000519 936.447571,331.417236 
	C937.617798,330.229645 938.865845,329.479095 938.877380,328.709991 
	C939.017395,319.405090 939.062683,310.095398 938.844482,300.793701 
	C938.822632,299.862183 936.912720,298.974976 935.879089,298.067200 
	C935.486145,298.026581 935.093201,297.985992 934.386230,297.478577 
	C933.171875,296.362671 932.300476,295.208069 931.366211,295.154755 
	C927.906799,294.957245 924.426636,295.123108 920.501221,295.101715 
	C916.679443,295.091705 913.310791,295.132416 909.481445,295.117584 
	C903.672424,295.338593 898.324097,295.615112 892.975769,295.891632 
	C891.416870,295.164886 889.858032,294.438141 888.672607,293.389679 
	C889.367493,291.596832 889.960632,290.127228 889.969055,288.654266 
	C890.084412,268.476105 890.119080,248.297424 890.173523,228.118881 
	C892.540161,227.692444 894.906738,227.266022 897.839233,227.345276 
	C904.607239,227.852768 910.809387,227.854614 917.011475,227.856445 
	C931.699219,228.539261 946.387024,229.222061 961.553833,230.409485 
	C963.107849,231.607315 964.169312,232.875656 965.259949,232.901276 
	C972.848450,233.079422 980.444336,233.066986 988.034180,232.921631 
	C989.036499,232.902420 990.017761,231.783722 991.008789,231.174255 
z"/>
</svg>